<?xml version="1.0" standalone="no"?>
<!DOCTYPE svg PUBLIC "-//W3C//DTD SVG 20010904//EN"
 "http://www.w3.org/TR/2001/REC-SVG-20010904/DTD/svg10.dtd">
<svg version="1.0" xmlns="http://www.w3.org/2000/svg"
 width="260.000000pt" height="260.000000pt" viewBox="0 0 260.000000 260.000000"
 preserveAspectRatio="xMidYMid meet">
<metadata>
Created by potrace 1.11, written by Peter Selinger 2001-2013
</metadata>
<g transform="translate(0.000000,260.000000) scale(0.100000,-0.100000)"
fill="#000000" stroke="none">
<path d="M0 1300 l0 -1300 1300 0 1300 0 0 1300 0 1300 -1300 0 -1300 0 0
-1300z m1485 932 c157 -36 281 -106 400 -226 76 -77 98 -106 137 -186 26 -52
54 -123 63 -157 24 -97 29 -226 11 -323 -8 -46 -14 -86 -12 -87 2 -2 20 11 42
28 47 38 130 80 203 104 69 23 171 35 194 23 28 -15 21 -44 -15 -57 -140 -51
-275 -145 -337 -235 -62 -89 -115 -128 -212 -155 -31 -9 -58 -20 -59 -26 -2
-13 93 -50 190 -74 99 -25 194 -40 310 -49 93 -7 95 -8 95 -32 0 -22 -7 -27
-50 -38 -27 -8 -122 -16 -210 -19 -179 -6 -287 8 -425 53 -75 25 -110 27 -110
5 0 -21 60 -45 141 -57 152 -23 349 -118 357 -172 5 -36 -22 -36 -130 -1 -96
31 -111 33 -218 30 -293 -8 -303 -6 -390 75 -56 52 -77 53 -37 1 53 -70 163
-160 257 -211 81 -44 95 -55 95 -76 0 -22 -5 -25 -39 -28 -90 -8 -297 58 -407
129 -75 49 -168 135 -220 205 -38 51 -38 52 -86 47 -189 -16 -365 -67 -522
-149 -80 -41 -107 -51 -118 -43 -28 24 -13 49 70 114 111 89 249 166 370 208
32 11 18 23 -70 55 -193 72 -397 102 -576 85 -102 -9 -127 -4 -127 27 0 14 15
23 62 39 87 28 189 50 277 59 l74 7 -54 37 c-64 45 -102 90 -136 164 -49 108
-41 223 22 318 58 87 173 146 183 95 2 -9 -11 -39 -29 -67 -55 -89 -40 -204
37 -272 19 -16 39 -30 44 -30 6 0 10 43 10 101 0 354 240 662 584 749 44 11
82 23 85 26 9 9 222 -2 276 -14z"/>
<path d="M1043 1953 c-13 -2 -32 -16 -43 -31 -20 -25 -21 -36 -18 -210 3 -182
3 -183 28 -202 37 -28 102 -26 137 4 l28 24 0 175 c0 193 -6 219 -58 237 -31
10 -36 10 -74 3z m67 -79 c11 -27 14 -265 4 -301 -7 -27 -40 -39 -59 -23 -12
10 -15 45 -15 175 0 89 3 165 7 168 17 17 54 6 63 -19z"/>
<path d="M1230 1719 l0 -230 28 3 c27 3 27 3 30 88 4 159 18 169 52 38 13 -51
27 -101 32 -110 8 -17 58 -26 58 -10 0 4 -18 69 -40 144 l-40 137 35 77 c19
42 35 80 35 85 0 5 -12 9 -26 9 -22 0 -30 -11 -64 -82 l-39 -83 0 83 -1 82
-30 0 -30 0 0 -231z"/>
<path d="M1470 1925 c0 -21 5 -25 30 -25 l30 0 2 -202 3 -203 30 0 30 0 3 203
2 202 30 0 c25 0 30 4 30 25 0 25 0 25 -95 25 -95 0 -95 0 -95 -25z"/>
<path d="M1524 1450 c-34 -13 -54 -50 -54 -98 0 -53 9 -71 75 -147 28 -33 54
-71 58 -84 7 -29 -6 -66 -27 -74 -24 -9 -56 28 -56 63 0 25 -4 30 -25 30 -31
0 -39 -18 -30 -66 14 -79 102 -111 163 -59 63 53 50 129 -38 228 -52 59 -60
73 -60 107 0 73 66 73 72 0 3 -30 7 -35 31 -38 26 -3 27 -2 27 45 -1 54 -14
77 -54 93 -32 12 -53 12 -82 0z"/>
<path d="M990 1220 l0 -230 25 0 c25 0 25 1 25 90 0 90 0 90 25 90 44 0 94 27
106 57 6 15 9 63 7 106 -4 102 -19 117 -119 117 l-69 0 0 -230z m118 168 c7
-7 12 -39 12 -74 0 -67 -13 -88 -52 -82 -21 3 -23 9 -26 72 -2 38 -1 75 2 83
7 16 48 17 64 1z"/>
<path d="M1232 1244 l3 -206 28 -24 c38 -33 96 -33 134 0 l28 24 3 206 3 206
-30 0 -31 0 0 -189 c0 -159 -3 -192 -16 -205 -19 -20 -29 -20 -48 0 -13 13
-16 46 -16 205 l0 189 -31 0 -30 0 3 -206z"/>
</g>
</svg>
